<?plantuml 1.2026.0?><svg xmlns="http://www.w3.org/2000/svg" xmlns:xlink="http://www.w3.org/1999/xlink" contentStyleType="text/css" data-diagram-type="DESCRIPTION" height="2693.75px" preserveAspectRatio="none" style="width:13681px;height:2693px;background:#FFFFFF;" version="1.1" viewBox="0 0 13681 2693" width="13681.25px" zoomAndPan="magnify"><title>&lt;size:18&gt;&lt;b&gt;Etkinlik Bilet Sat&#305;&#351; Sistemi - Use Case Diyagram&#305;&lt;/b&gt;&lt;/size&gt;</title><defs/><g><g class="title" data-source-line="37"><text fill="#000000" font-family="Arial" font-size="112.5" font-weight="bold" lengthAdjust="spacing" textLength="3063.7573" x="5281.482" y="198.175">Etkinlik Bilet Sat&#305;&#351; Sistemi - Use Case Diyagram&#305;</text></g><!--cluster Etkinlik Bilet Sat?? Sistemi--><g class="cluster" data-qualified-name="Etkinlik Bilet Sat.. Sistemi" data-source-line="46" id="ent0006"><rect fill="#FFFFFF" height="1363.5" rx="15.625" ry="15.625" style="stroke:#333333;stroke-width:12.5;" width="11625" x="75" y="1209.6445"/><text fill="#000000" font-family="Arial" font-size="100" font-weight="bold" lengthAdjust="spacing" textLength="1489.0137" x="5142.9932" y="1314.9668">Etkinlik Bilet Sat&#305;&#351; Sistemi</text></g><!--entity UC1--><g class="entity" data-qualified-name="Etkinlik Bilet Sat.. Sistemi.UC1" data-source-line="48" id="ent0007"><ellipse cx="4425.0271" cy="1593.0292" fill="#FEFEFE" rx="362.3396" ry="150.1346" style="stroke:#333333;stroke-width:12.5;"/><text fill="#000000" font-family="Arial" font-size="81.25" font-weight="bold" lengthAdjust="spacing" textLength="494.6808" x="4177.6867" y="1574.5392">Etkinlikleri</text><text fill="#000000" font-family="Arial" font-size="81.25" font-weight="bold" lengthAdjust="spacing" textLength="457.9041" x="4196.075" y="1669.1193">G&#246;r&#252;nt&#252;le</text></g><!--entity UC2--><g class="entity" data-qualified-name="Etkinlik Bilet Sat.. Sistemi.UC2" data-source-line="49" id="ent0008"><ellipse cx="2787.4944" cy="1593.0227" fill="#FEFEFE" rx="275.1819" ry="85.6282" style="stroke:#333333;stroke-width:12.5;"/><text fill="#000000" font-family="Arial" font-size="81.25" font-weight="bold" lengthAdjust="spacing" textLength="362.6495" x="2606.1697" y="1618.4378">Kay&#305;t Ol</text></g><!--entity UC3--><g class="entity" data-qualified-name="Etkinlik Bilet Sat.. Sistemi.UC3" data-source-line="50" id="ent0009"><ellipse cx="5312.5099" cy="1593.0227" fill="#FEFEFE" rx="309.3224" ry="85.6282" style="stroke:#333333;stroke-width:12.5;"/><text fill="#000000" font-family="Arial" font-size="81.25" font-weight="bold" lengthAdjust="spacing" textLength="410.9314" x="5107.0442" y="1618.4378">Giri&#351; Yap</text></g><!--entity UC4--><g class="entity" data-qualified-name="Etkinlik Bilet Sat.. Sistemi.UC4" data-source-line="53" id="ent0010"><ellipse cx="3562.478" cy="1593.0071" fill="#FEFEFE" rx="278.478" ry="142.6751" style="stroke:#333333;stroke-width:12.5;"/><text fill="#000000" font-family="Arial" font-size="81.25" font-weight="bold" lengthAdjust="spacing" textLength="246.4874" x="3439.2343" y="1556.6272">Profil</text><text fill="#000000" font-family="Arial" font-size="81.25" font-weight="bold" lengthAdjust="spacing" textLength="396.4508" x="3364.2526" y="1651.2072">G&#252;ncelle</text></g><!--entity UC5--><g class="entity" data-qualified-name="Etkinlik Bilet Sat.. Sistemi.UC5" data-source-line="54" id="ent0011"><ellipse cx="2043.7432" cy="1593.0346" fill="#FEFEFE" rx="251.5557" ry="142.1401" style="stroke:#333333;stroke-width:12.5;"/><text fill="#000000" font-family="Arial" font-size="81.25" font-weight="bold" lengthAdjust="spacing" textLength="211.5753" x="1937.9555" y="1555.8243">Bilet</text><text fill="#000000" font-family="Arial" font-size="81.25" font-weight="bold" lengthAdjust="spacing" textLength="356.897" x="1865.2947" y="1650.4044">Sat&#305;n Al</text></g><!--entity UC6--><g class="entity" data-qualified-name="Etkinlik Bilet Sat.. Sistemi.UC6" data-source-line="55" id="ent0012"><ellipse cx="1218.7765" cy="1593.0392" fill="#FEFEFE" rx="351.6515" ry="151.3322" style="stroke:#333333;stroke-width:12.5;"/><text fill="#000000" font-family="Arial" font-size="81.25" font-weight="bold" lengthAdjust="spacing" textLength="474.9634" x="981.2948" y="1572.8323">Biletlerimi</text><text fill="#000000" font-family="Arial" font-size="81.25" font-weight="bold" lengthAdjust="spacing" textLength="457.9041" x="989.8244" y="1667.4123">G&#246;r&#252;nt&#252;le</text></g><!--entity UC7--><g class="entity" data-qualified-name="Etkinlik Bilet Sat.. Sistemi.UC7" data-source-line="56" id="ent0013"><ellipse cx="412.4725" cy="1593.0364" fill="#FEFEFE" rx="237.0975" ry="142.9544" style="stroke:#333333;stroke-width:12.5;"/><text fill="#000000" font-family="Arial" font-size="81.25" font-weight="bold" lengthAdjust="spacing" textLength="211.5753" x="306.6849" y="1557.088">Bilet</text><text fill="#000000" font-family="Arial" font-size="81.25" font-weight="bold" lengthAdjust="spacing" textLength="332.5378" x="246.2036" y="1651.6681">&#304;ptal Et</text></g><!--entity UC8--><g class="entity" data-qualified-name="Etkinlik Bilet Sat.. Sistemi.UC8" data-source-line="57" id="ent0014"><ellipse cx="2043.7577" cy="2383.9711" fill="#FEFEFE" rx="371.0077" ry="89.2015" style="stroke:#333333;stroke-width:12.5;"/><text fill="#000000" font-family="Arial" font-size="81.25" font-weight="bold" lengthAdjust="spacing" textLength="522.2137" x="1782.6508" y="2409.3861">&#214;deme Yap</text></g><!--entity UC9--><g class="entity" data-qualified-name="Etkinlik Bilet Sat.. Sistemi.UC9" data-source-line="60" id="ent0015"><ellipse cx="7837.4799" cy="1593.0217" fill="#FEFEFE" rx="261.1674" ry="152.1271" style="stroke:#333333;stroke-width:12.5;"/><text fill="#000000" font-family="Arial" font-size="81.25" font-weight="bold" lengthAdjust="spacing" textLength="343.8049" x="7665.5775" y="1571.6838">Etkinlik</text><text fill="#000000" font-family="Arial" font-size="81.25" font-weight="bold" lengthAdjust="spacing" textLength="339.8773" x="7667.5413" y="1666.2639">Olu&#351;tur</text></g><!--entity UC10--><g class="entity" data-qualified-name="Etkinlik Bilet Sat.. Sistemi.UC10" data-source-line="61" id="ent0016"><ellipse cx="7068.7208" cy="1593.0091" fill="#FEFEFE" rx="290.5333" ry="148.4271" style="stroke:#333333;stroke-width:12.5;"/><text fill="#000000" font-family="Arial" font-size="81.25" font-weight="bold" lengthAdjust="spacing" textLength="343.8049" x="6896.8184" y="1565.2713">Etkinlik</text><text fill="#000000" font-family="Arial" font-size="81.25" font-weight="bold" lengthAdjust="spacing" textLength="396.4508" x="6870.4954" y="1659.8513">G&#252;ncelle</text></g><!--entity UC11--><g class="entity" data-qualified-name="Etkinlik Bilet Sat.. Sistemi.UC11" data-source-line="62" id="ent0017"><ellipse cx="6199.9777" cy="1593.0401" fill="#FEFEFE" rx="357.9152" ry="86.583" style="stroke:#333333;stroke-width:12.5;"/><text fill="#000000" font-family="Arial" font-size="81.25" font-weight="bold" lengthAdjust="spacing" textLength="486.3098" x="5956.8227" y="1618.4551">Etkinlik Sil</text></g><!--entity UC13--><g class="entity" data-qualified-name="Etkinlik Bilet Sat.. Sistemi.UC13" data-source-line="65" id="ent0018"><ellipse cx="11231.2485" cy="1593.0498" fill="#FEFEFE" rx="368.561" ry="140.4678" style="stroke:#333333;stroke-width:12.5;"/><text fill="#000000" font-family="Arial" font-size="81.25" font-weight="bold" lengthAdjust="spacing" textLength="543.6371" x="10959.43" y="1589.1401">Kullan&#305;c&#305;lar&#305;</text><text fill="#000000" font-family="Arial" font-size="81.25" font-weight="bold" lengthAdjust="spacing" textLength="266.4429" x="11098.0271" y="1683.7202">Y&#246;net</text></g><!--entity UC14--><g class="entity" data-qualified-name="Etkinlik Bilet Sat.. Sistemi.UC14" data-source-line="66" id="ent0019"><ellipse cx="8693.7234" cy="1593.0392" fill="#FEFEFE" rx="376.9734" ry="90.3947" style="stroke:#333333;stroke-width:12.5;"/><text fill="#000000" font-family="Arial" font-size="81.25" font-weight="bold" lengthAdjust="spacing" textLength="538.2019" x="8424.6225" y="1618.4543">Rol De&#287;i&#351;tir</text></g><!--entity UC16--><g class="entity" data-qualified-name="Etkinlik Bilet Sat.. Sistemi.UC16" data-source-line="67" id="ent0020"><ellipse cx="9587.4925" cy="1593.0227" fill="#FEFEFE" rx="299.055" ry="85.6282" style="stroke:#333333;stroke-width:12.5;"/><text fill="#000000" font-family="Arial" font-size="81.25" font-weight="bold" lengthAdjust="spacing" textLength="396.4111" x="9389.2869" y="1618.4378">Bilet Ata</text></g><!--entity UC17--><g class="entity" data-qualified-name="Etkinlik Bilet Sat.. Sistemi.UC17" data-source-line="68" id="ent0021"><ellipse cx="10374.9975" cy="1593.0227" fill="#FEFEFE" rx="269.1225" ry="85.6282" style="stroke:#333333;stroke-width:12.5;"/><text fill="#000000" font-family="Arial" font-size="81.25" font-weight="bold" lengthAdjust="spacing" textLength="354.0802" x="10197.9574" y="1618.4378">Bilet Sil</text></g><!--entity Visitor--><g class="entity" data-qualified-name="Visitor" data-source-line="40" id="ent0002"><ellipse cx="4287.4778" cy="481.832" fill="#FFFFFF" rx="100" ry="100" style="stroke:#000000;stroke-width:6.25;"/><path d="M4287.4778,606.832 C4312.4778,606.832 4331.2278,606.832 4356.2278,581.832 C4406.2278,581.832 4456.2278,631.832 4456.2278,681.832 L4456.2278,706.832 C4456.2278,731.832 4431.2278,756.832 4406.2278,756.832 L4168.7278,756.832 C4143.7278,756.832 4118.7278,731.832 4118.7278,706.832 L4118.7278,681.832 C4118.7278,631.832 4168.7278,581.832 4218.7278,581.832 C4243.7278,606.832 4262.4778,606.832 4287.4778,606.832" fill="#FFFFFF" style="stroke:#000000;stroke-width:6.25;"/><text fill="#000000" font-family="Arial" font-size="87.5" font-weight="bold" lengthAdjust="spacing" textLength="435.7056" x="4069.625" y="844.3015">Ziyaret&#231;i</text></g><!--entity User--><g class="entity" data-qualified-name="User" data-source-line="41" id="ent0003"><ellipse cx="2250.0114" cy="430.957" fill="#FFFFFF" rx="100" ry="100" style="stroke:#000000;stroke-width:6.25;"/><path d="M2250.0114,555.957 C2275.0114,555.957 2293.7614,555.957 2318.7614,530.957 C2368.7614,530.957 2418.7614,580.957 2418.7614,630.957 L2418.7614,655.957 C2418.7614,680.957 2393.7614,705.957 2368.7614,705.957 L2131.2614,705.957 C2106.2614,705.957 2081.2614,680.957 2081.2614,655.957 L2081.2614,630.957 C2081.2614,580.957 2131.2614,530.957 2181.2614,530.957 C2206.2614,555.957 2225.0114,555.957 2250.0114,555.957" fill="#FFFFFF" style="stroke:#000000;stroke-width:6.25;"/><text fill="#000000" font-family="Arial" font-size="87.5" font-weight="bold" lengthAdjust="spacing" textLength="423.2727" x="2038.375" y="793.4265">Kullan&#305;c&#305;</text><text fill="#000000" font-family="Arial" font-size="87.5" font-weight="bold" lengthAdjust="spacing" textLength="305.6091" x="2038.375" y="895.282">(User)</text></g><!--entity Organizer--><g class="entity" data-qualified-name="Organizer" data-source-line="42" id="ent0004"><ellipse cx="6006.2206" cy="481.832" fill="#FFFFFF" rx="100" ry="100" style="stroke:#000000;stroke-width:6.25;"/><path d="M6006.2206,606.832 C6031.2206,606.832 6049.9706,606.832 6074.9706,581.832 C6124.9706,581.832 6174.9706,631.832 6174.9706,681.832 L6174.9706,706.832 C6174.9706,731.832 6149.9706,756.832 6124.9706,756.832 L5887.4706,756.832 C5862.4706,756.832 5837.4706,731.832 5837.4706,706.832 L5837.4706,681.832 C5837.4706,631.832 5887.4706,581.832 5937.4706,581.832 C5962.4706,606.832 5981.2206,606.832 6006.2206,606.832" fill="#FFFFFF" style="stroke:#000000;stroke-width:6.25;"/><text fill="#000000" font-family="Arial" font-size="87.5" font-weight="bold" lengthAdjust="spacing" textLength="586.5662" x="5712.9375" y="844.3015">Organizat&#246;r</text></g><!--entity Admin--><g class="entity" data-qualified-name="Admin" data-source-line="43" id="ent0005"><ellipse cx="7837.5208" cy="430.957" fill="#FFFFFF" rx="100" ry="100" style="stroke:#000000;stroke-width:6.25;"/><path d="M7837.5208,555.957 C7862.5208,555.957 7881.2708,555.957 7906.2708,530.957 C7956.2708,530.957 8006.2708,580.957 8006.2708,630.957 L8006.2708,655.957 C8006.2708,680.957 7981.2708,705.957 7956.2708,705.957 L7718.7708,705.957 C7693.7708,705.957 7668.7708,680.957 7668.7708,655.957 L7668.7708,630.957 C7668.7708,580.957 7718.7708,530.957 7768.7708,530.957 C7793.7708,555.957 7812.5208,555.957 7837.5208,555.957" fill="#FFFFFF" style="stroke:#000000;stroke-width:6.25;"/><text fill="#000000" font-family="Arial" font-size="87.5" font-weight="bold" lengthAdjust="spacing" textLength="398.7915" x="7638.125" y="793.4265">Y&#246;netici</text><text fill="#000000" font-family="Arial" font-size="87.5" font-weight="bold" lengthAdjust="spacing" textLength="393.7927" x="7638.125" y="895.282">(Admin)</text></g><g class="entity" data-qualified-name="GMN47" data-source-line="108" id="ent0048"><path d="M11798.375,2272.6445 L11798.375,2495.2031 L12614.1038,2495.2031 L12614.1038,2335.1445 L12551.6038,2272.6445 L11798.375,2272.6445" fill="#FFFFCC" style="stroke:#999999;stroke-width:6.25;"/><path d="M12551.6038,2272.6445 L12551.6038,2335.1445 L12614.1038,2335.1445 L12551.6038,2272.6445" fill="#FFFFCC" style="stroke:#999999;stroke-width:6.25;"/><text fill="#000000" font-family="Arial" font-size="68.75" lengthAdjust="spacing" textLength="684.4788" x="11835.875" y="2367.7098">Admin ve Organizer</text><text fill="#000000" font-family="Arial" font-size="68.75" lengthAdjust="spacing" textLength="610.9283" x="11835.875" y="2447.7391">bilet sat&#305;n alamaz</text></g><g class="entity" data-qualified-name="GMN50" data-source-line="113" id="ent0051"><path d="M12835.8125,2232.6445 L12835.8125,2535.2324 L13639.2213,2535.2324 L13639.2213,2295.1445 L13576.7213,2232.6445 L12835.8125,2232.6445" fill="#FFFFCC" style="stroke:#999999;stroke-width:6.25;"/><path d="M13576.7213,2232.6445 L13576.7213,2295.1445 L13639.2213,2295.1445 L13576.7213,2232.6445" fill="#FFFFCC" style="stroke:#999999;stroke-width:6.25;"/><text fill="#000000" font-family="Arial" font-size="68.75" lengthAdjust="spacing" textLength="672.1588" x="12873.3125" y="2327.7098">Organizat&#246;r sadece</text><text fill="#000000" font-family="Arial" font-size="68.75" lengthAdjust="spacing" textLength="631.4728" x="12873.3125" y="2407.7391">kendi etkinliklerini</text><text fill="#000000" font-family="Arial" font-size="68.75" lengthAdjust="spacing" textLength="482.7606" x="12873.3125" y="2487.7684">d&#252;zenleyebilir</text></g><!--link Visitor to UC1--><g class="link" data-entity-1="ent0002" data-entity-2="ent0007" data-link-type="dependency" data-source-line="72" id="lnk22"><path d="M4321.8125,866.3945 C4347.75,1047.457 4377.1839,1252.8983 4398.9964,1405.2108" fill="none" id="Visitor-to-UC1" style="stroke:#000000;stroke-width:6.25;"/><polygon fill="#000000" points="4404.3125,1442.332,4421.0859,1383.1061,4399.8824,1411.3976,4371.5908,1390.1942,4404.3125,1442.332" style="stroke:#000000;stroke-width:6.25;"/></g><!--link Visitor to UC2--><g class="link" data-entity-1="ent0002" data-entity-2="ent0008" data-link-type="dependency" data-source-line="73" id="lnk23"><path d="M4066.6875,703.082 C3831.6875,790.957 3455.75,950.3945 3175,1159.6445 C3039.3125,1260.7695 2936.4407,1384.522 2866.8157,1477.3345" fill="none" id="Visitor-to-UC2" style="stroke:#000000;stroke-width:6.25;"/><polygon fill="#000000" points="2844.3125,1507.332,2898.0657,1477.3378,2863.0652,1482.3341,2858.069,1447.3335,2844.3125,1507.332" style="stroke:#000000;stroke-width:6.25;"/></g><!--link Visitor to UC3--><g class="link" data-entity-1="ent0002" data-entity-2="ent0009" data-link-type="dependency" data-source-line="74" id="lnk24"><path d="M4507.75,690.0195 C4709.9375,759.3945 5003.4375,890.082 5175,1103.3945 C5269.625,1221.0195 5295.8028,1363.042 5305.0528,1467.042" fill="none" id="Visitor-to-UC3" style="stroke:#000000;stroke-width:6.25;"/><polygon fill="#000000" points="5308.375,1504.3945,5328.2934,1446.1509,5305.6065,1473.2674,5278.49,1450.5805,5308.375,1504.3945" style="stroke:#000000;stroke-width:6.25;"/></g><!--link User to UC1--><g class="link" data-entity-1="ent0003" data-entity-2="ent0007" data-link-type="dependency" data-source-line="77" id="lnk25"><path d="M2463.1875,662.957 C2797.25,726.5195 3456.9375,878.5195 3950,1159.6445 C4084.875,1236.5195 4188.3633,1330.0101 4277.9258,1423.4476" fill="none" id="User-to-UC1" style="stroke:#000000;stroke-width:6.25;"/><polygon fill="#000000" points="4303.875,1450.5195,4282.9991,1392.6122,4282.2507,1427.9596,4246.9032,1427.2111,4303.875,1450.5195" style="stroke:#000000;stroke-width:6.25;"/></g><!--link User to UC3--><g class="link" data-entity-1="ent0003" data-entity-2="ent0009" data-link-type="dependency" data-source-line="78" id="lnk26"><path d="M2462.875,662.0195 C3052.6875,761.457 4678.6875,1042.957 4893.75,1159.6445 C5050.75,1244.832 5163.6874,1378.0545 5235.4374,1476.242" fill="none" id="User-to-UC3" style="stroke:#000000;stroke-width:6.25;"/><polygon fill="#000000" points="5257.5625,1506.5195,5244.5598,1446.3532,5239.1249,1481.2883,5204.1898,1475.8533,5257.5625,1506.5195" style="stroke:#000000;stroke-width:6.25;"/></g><!--link User to UC4--><g class="link" data-entity-1="ent0003" data-entity-2="ent0010" data-link-type="dependency" data-source-line="79" id="lnk27"><path d="M2464.625,843.082 C2573.0625,939.8945 2712.125,1046.2695 2856.25,1109.6445 C2987.5,1167.332 3048.8125,1091.5195 3175,1159.6445 C3302.75,1228.582 3388.514,1325.8104 3457.5765,1423.7479" fill="none" id="User-to-UC4" style="stroke:#000000;stroke-width:6.25;"/><polygon fill="#000000" points="3479.1875,1454.3945,3467.202,1394.0173,3461.1783,1428.8557,3426.3399,1422.832,3479.1875,1454.3945" style="stroke:#000000;stroke-width:6.25;"/></g><!--link User to UC5--><g class="link" data-entity-1="ent0003" data-entity-2="ent0011" data-link-type="dependency" data-source-line="80" id="lnk28"><path d="M2187.5625,917.2695 C2149.625,1093.8945 2110.8141,1274.6061 2081.1266,1412.7936" fill="none" id="User-to-UC5" style="stroke:#000000;stroke-width:6.25;"/><polygon fill="#000000" points="2073.25,1449.457,2109.5072,1399.7129,2079.8138,1418.9041,2060.6226,1389.2108,2073.25,1449.457" style="stroke:#000000;stroke-width:6.25;"/></g><!--link User to UC6--><g class="link" data-entity-1="ent0003" data-entity-2="ent0012" data-link-type="dependency" data-source-line="81" id="lnk29"><path d="M2036.3125,825.5195 C1834.5625,1013.3945 1565.008,1264.3408 1390.008,1427.2783" fill="none" id="User-to-UC6" style="stroke:#000000;stroke-width:6.25;"/><polygon fill="#000000" points="1362.5625,1452.832,1420.7666,1432.7984,1385.4338,1431.5372,1386.695,1396.2044,1362.5625,1452.832" style="stroke:#000000;stroke-width:6.25;"/></g><!--link User to UC7--><g class="link" data-entity-1="ent0003" data-entity-2="ent0013" data-link-type="dependency" data-source-line="82" id="lnk30"><path d="M2037.5,664.207 C1731.375,726.3945 1159.125,873.2695 756.25,1159.6445 C645.3125,1238.5195 571.6034,1331.1457 509.9784,1425.2707" fill="none" id="User-to-UC7" style="stroke:#000000;stroke-width:6.25;"/><polygon fill="#000000" points="489.4375,1456.6445,541.1648,1423.2777,506.5549,1430.4996,499.333,1395.8898,489.4375,1456.6445" style="stroke:#000000;stroke-width:6.25;"/></g><!--link Organizer to UC1--><g class="link" data-entity-1="ent0004" data-entity-2="ent0007" data-link-type="dependency" data-source-line="85" id="lnk31"><path d="M5710.1875,740.457 C5478.4375,836.082 5153.0625,984.8945 4893.75,1159.6445 C4768.6875,1243.957 4669.6393,1333.751 4580.0768,1423.751" fill="none" id="Organizer-to-UC1" style="stroke:#000000;stroke-width:6.25;"/><polygon fill="#000000" points="4553.625,1450.332,4611.0234,1428.095,4575.6682,1428.1812,4575.582,1392.8259,4553.625,1450.332" style="stroke:#000000;stroke-width:6.25;"/></g><!--link Organizer to UC3--><g class="link" data-entity-1="ent0004" data-entity-2="ent0009" data-link-type="dependency" data-source-line="86" id="lnk32"><path d="M5833,866.3945 C5681.25,1076.332 5491.8369,1338.5609 5391.5869,1477.3109" fill="none" id="Organizer-to-UC3" style="stroke:#000000;stroke-width:6.25;"/><polygon fill="#000000" points="5369.625,1507.707,5422.8319,1476.7541,5387.9266,1482.3769,5382.3037,1447.4716,5369.625,1507.707" style="stroke:#000000;stroke-width:6.25;"/></g><!--link Organizer to UC4--><g class="link" data-entity-1="ent0004" data-entity-2="ent0010" data-link-type="dependency" data-source-line="87" id="lnk33"><path d="M5709.9375,682.1445 C5216.75,778.207 4252.3125,982.082 3956.25,1159.6445 C3831.6875,1234.332 3745.1279,1330.0999 3673.5654,1425.9124" fill="none" id="Organizer-to-UC4" style="stroke:#000000;stroke-width:6.25;"/><polygon fill="#000000" points="3651.125,1455.957,3704.8153,1425.8503,3669.8253,1430.9198,3664.7558,1395.9298,3651.125,1455.957" style="stroke:#000000;stroke-width:6.25;"/></g><!--link Organizer to UC9--><g class="link" data-entity-1="ent0004" data-entity-2="ent0015" data-link-type="dependency" data-source-line="88" id="lnk34"><path d="M6301.5,687.3945 C6612.4375,761.707 7106.1875,909.457 7468.75,1159.6445 C7580.8125,1237.0195 7657.8952,1325.8863 7725.0827,1418.7613" fill="none" id="Organizer-to-UC9" style="stroke:#000000;stroke-width:6.25;"/><polygon fill="#000000" points="7747.0625,1449.1445,7734.3483,1388.9165,7728.746,1423.8252,7693.8374,1418.2229,7747.0625,1449.1445" style="stroke:#000000;stroke-width:6.25;"/></g><!--link Organizer to UC10--><g class="link" data-entity-1="ent0004" data-entity-2="ent0016" data-link-type="dependency" data-source-line="89" id="lnk35"><path d="M6302.25,850.207 C6419.4375,942.5195 6553.5,1052.707 6668.75,1159.6445 C6770.0625,1253.582 6851.639,1340.3062 6929.264,1427.1812" fill="none" id="Organizer-to-UC10" style="stroke:#000000;stroke-width:6.25;"/><polygon fill="#000000" points="6954.25,1455.1445,6935.4133,1396.5421,6933.4283,1431.8417,6898.1288,1429.8568,6954.25,1455.1445" style="stroke:#000000;stroke-width:6.25;"/></g><!--link Organizer to UC11--><g class="link" data-entity-1="ent0004" data-entity-2="ent0017" data-link-type="dependency" data-source-line="90" id="lnk36"><path d="M6054.625,866.3945 C6096.8125,1075.207 6148.0199,1329.073 6176.2074,1468.7605" fill="none" id="Organizer-to-UC11" style="stroke:#000000;stroke-width:6.25;"/><polygon fill="#000000" points="6183.625,1505.5195,6197.0046,1445.4359,6177.4437,1474.887,6147.9926,1455.326,6183.625,1505.5195" style="stroke:#000000;stroke-width:6.25;"/></g><!--link Admin to UC1--><g class="link" data-entity-1="ent0005" data-entity-2="ent0007" data-link-type="dependency" data-source-line="93" id="lnk37"><path d="M7636.5,669.7695 C7360,728.707 6846.5,835.957 6406.25,915.8945 C6322.5,931.082 4970.4375,1122.6445 4893.75,1159.6445 C4752.9375,1227.582 4649.1335,1323.5763 4562.321,1420.5763" fill="none" id="Admin-to-UC1" style="stroke:#000000;stroke-width:6.25;"/><polygon fill="#000000" points="4537.3125,1448.5195,4593.4541,1423.277,4558.1529,1425.2335,4556.1964,1389.9323,4537.3125,1448.5195" style="stroke:#000000;stroke-width:6.25;"/></g><!--link Admin to UC3--><g class="link" data-entity-1="ent0005" data-entity-2="ent0009" data-link-type="dependency" data-source-line="94" id="lnk38"><path d="M7636.5625,663.0195 C7176.4375,748.7695 6060.75,970.2695 5731.25,1159.6445 C5577.3125,1248.1445 5464.6782,1378.9501 5391.9282,1476.0126" fill="none" id="Admin-to-UC3" style="stroke:#000000;stroke-width:6.25;"/><polygon fill="#000000" points="5369.4375,1506.0195,5423.1782,1476.0029,5388.1798,1481.0137,5383.169,1446.0153,5369.4375,1506.0195" style="stroke:#000000;stroke-width:6.25;"/></g><!--link Admin to UC9--><g class="link" data-entity-1="ent0005" data-entity-2="ent0015" data-link-type="dependency" data-source-line="95" id="lnk39"><path d="M7837.5,917.2695 C7837.5,1089.457 7837.5,1262.8945 7837.5,1401.457" fill="none" id="Admin-to-UC9" style="stroke:#000000;stroke-width:6.25;"/><polygon fill="#000000" points="7837.5,1438.957,7862.5,1382.707,7837.5,1407.707,7812.5,1382.707,7837.5,1438.957" style="stroke:#000000;stroke-width:6.25;"/></g><!--link Admin to UC10--><g class="link" data-entity-1="ent0005" data-entity-2="ent0016" data-link-type="dependency" data-source-line="96" id="lnk40"><path d="M7635.5,878.832 C7487.8125,1063.332 7316.8131,1276.9341 7198.3131,1424.9341" fill="none" id="Admin-to-UC10" style="stroke:#000000;stroke-width:6.25;"/><polygon fill="#000000" points="7174.875,1454.207,7229.5475,1425.9231,7194.4068,1429.8129,7190.5169,1394.6722,7174.875,1454.207" style="stroke:#000000;stroke-width:6.25;"/></g><!--link Admin to UC11--><g class="link" data-entity-1="ent0005" data-entity-2="ent0017" data-link-type="dependency" data-source-line="97" id="lnk41"><path d="M7635.4375,696.6445 C7394.3125,785.207 6984.25,951.3945 6668.75,1159.6445 C6514.375,1261.5195 6386.4914,1386.3749 6299.1164,1478.9374" fill="none" id="Admin-to-UC11" style="stroke:#000000;stroke-width:6.25;"/><polygon fill="#000000" points="6273.375,1506.207,6330.1668,1482.4635,6294.8261,1483.4823,6293.8073,1448.1417,6273.375,1506.207" style="stroke:#000000;stroke-width:6.25;"/></g><!--link Admin to UC13--><g class="link" data-entity-1="ent0005" data-entity-2="ent0018" data-link-type="dependency" data-source-line="98" id="lnk42"><path d="M8038.5,626.332 C8529.125,633.3945 9816.5,698.1445 10756.25,1159.6445 C10901.5625,1231.0195 11010.4583,1332.0937 11098.8333,1429.7187" fill="none" id="Admin-to-UC13" style="stroke:#000000;stroke-width:6.25;"/><polygon fill="#000000" points="11124,1457.5195,11104.7838,1399.0405,11103.0277,1434.3522,11067.716,1432.5961,11124,1457.5195" style="stroke:#000000;stroke-width:6.25;"/></g><!--link Admin to UC14--><g class="link" data-entity-1="ent0005" data-entity-2="ent0019" data-link-type="dependency" data-source-line="99" id="lnk43"><path d="M8038.25,851.6445 C8224.125,1060.082 8465.5389,1330.8464 8593.9764,1474.8464" fill="none" id="Admin-to-UC14" style="stroke:#000000;stroke-width:6.25;"/><polygon fill="#000000" points="8618.9375,1502.832,8600.1529,1444.2129,8598.1366,1479.5107,8562.8388,1477.4944,8618.9375,1502.832" style="stroke:#000000;stroke-width:6.25;"/></g><!--link Admin to UC16--><g class="link" data-entity-1="ent0005" data-entity-2="ent0020" data-link-type="dependency" data-source-line="100" id="lnk44"><path d="M8039.5625,677.082 C8314.5,752.207 8814.1875,911.707 9181.25,1159.6445 C9325.4375,1257.0195 9434.3944,1383.727 9506.7069,1477.7895" fill="none" id="Admin-to-UC16" style="stroke:#000000;stroke-width:6.25;"/><polygon fill="#000000" points="9529.5625,1507.5195,9515.0992,1447.6875,9510.5162,1482.7445,9475.4592,1478.1616,9529.5625,1507.5195" style="stroke:#000000;stroke-width:6.25;"/></g><!--link Admin to UC17--><g class="link" data-entity-1="ent0005" data-entity-2="ent0021" data-link-type="dependency" data-source-line="101" id="lnk45"><path d="M8039.8125,637.0195 C8440.375,665.957 9351.3125,772.582 9993.75,1159.6445 C10139.3125,1247.332 10239.8587,1377.1904 10304.2962,1474.5029" fill="none" id="Admin-to-UC17" style="stroke:#000000;stroke-width:6.25;"/><polygon fill="#000000" points="10325,1505.7695,10314.7886,1445.0671,10307.7468,1479.714,10273.0998,1472.6722,10325,1505.7695" style="stroke:#000000;stroke-width:6.25;"/></g><!--link UC5 to UC8--><g class="link" data-entity-1="ent0011" data-entity-2="ent0014" data-link-type="dependency" data-source-line="104" id="lnk46"><path d="M2043.75,1736.6445 C2043.75,1897.2695 2043.75,2120.6445 2043.75,2254.707" fill="none" id="UC5-to-UC8" style="stroke:#000000;stroke-width:6.25;stroke-dasharray:43.75,43.75;"/><polygon fill="#000000" points="2043.75,2292.207,2068.75,2235.957,2043.75,2260.957,2018.75,2235.957,2043.75,2292.207" style="stroke:#000000;stroke-width:6.25;"/><text fill="#000000" font-family="Arial" font-size="87.5" lengthAdjust="spacing" textLength="424.0845" x="2050" y="2020.114">&#171;include&#187;</text></g><!--link UC5 to GMN47--><g class="link" data-entity-1="ent0011" data-entity-2="ent0048" data-link-type="association" data-source-line="108" id="lnk49"><path d="M2232.1875,1690.207 C2285.3125,1712.0195 2343.9375,1732.582 2400,1745.1445 C6438.8125,2650.457 7617.6875,1549.957 11700,2232.6445 C11755.9375,2242.0195 11814.4375,2255.332 11871,2270.1445" fill="none" id="UC5-GMN47" style="stroke:#000000;stroke-width:6.25;stroke-dasharray:43.75,43.75;"/></g><!--link UC10 to GMN50--><g class="link" data-entity-1="ent0016" data-entity-2="ent0051" data-link-type="association" data-source-line="113" id="lnk52"><path d="M7287.375,1692.8945 C7345.3125,1713.832 7408.5625,1733.332 7468.75,1745.1445 C8538,1955.207 11314.5,1656.8945 12368.75,1932.6445 C12603.1875,1993.957 12846.8125,2125.6445 13016.1875,2229.957" fill="none" id="UC10-GMN50" style="stroke:#000000;stroke-width:6.25;stroke-dasharray:43.75,43.75;"/></g><?plantuml-src dLLFRzem5B_dKxon0zkXBMaeBHL2ehIhfahjDBP9dNenoIkrS1pac4qmxMliskEkvT8JDzBlDTj9m0RQIZCNtX__tk_zSzx8EumHHenGxgKXOGZxdfSEAHyHGMA8HXI2MitMu2qPC_aXuR97fmX-VRlnaYZSZg24sNWab8deoOcAGtvYciHe6KSa7981vcQ1eIHymD2-Faun92d2Bm_KEL7-0v6CUTHDM2BWxOSp_SjjYOXG5Fh074l_vOw6GuvfghBLsbKsmKesDFe9YxpV6oaK3Emgl7PlcL39_ZyPDbwDn1FvV8dKwNOt2JJDMGlbQrn9fOhIIfNcs3zgj_hjCwb2CJg44yfGGe_8RFPq3psQIemfxC1NrQAkxjCfdP21efJDMdlzTcjFWxGzhmgTeLmy2eR2oyjP-Quy1Sh5Nre1ai8tcbAbBwqNOyO8psPXDhlXxnIyU6_SzB_IvqeC2ATJee6DiL2iFAuNZnmb3Qd2w4GnvJc8-Qj9vGbugqPLNiwqKXIv2kV8aItJhkgyjA4SroMECgZWvuhXOixbOiumJwFhk_uNP9BD95onmhplci-fe8h6DHaLzdno2Z9MiHnAr0Nv999RoZIREG-HBQdKNJUJ-GqtgNFeb8mEjdZf6F7s_1fRGRE7aIGCpcJXTUXwBVv4-d5QfNbafsdt-wKyozhVy2isVhgNOr6WDP_pMw-8NzlkgUQWB8VlszJCHBt4oMeH8q8FTJwR9LhWkdzE69nYTg-QBcb9tz_MAEX8KjgtrTocVAYtkmghpOFiWQaGGse85oi8EpjjCw2klByc1nhAdZm7I-_f4iWI0bkesyA1BJHiuL17SfhlX5fk_JBUkYROqDGtDCrDdDgcoZTFcMcsmo5NbV5jAN2afkjPSqNtfkzULTrtn8OhcY9zv24RHxZMYku1xEvgfoCuXbQBvavjyonV9bBDesS-8Fr4oYI6vBROzXp_1rhlAa3V35MQFmw4aPXCFUIH-GHvcpXcavpUfIJ249LsgAvHGEkXv7ffeiLyYfpX15KeAbRW_m00?></g></svg>